<svg width="754" height="208" viewBox="0 0 754 208" fill="none" xmlns="http://www.w3.org/2000/svg">
<path fill-rule="evenodd" clip-rule="evenodd" d="M73.0272 1.4135C69.8337 4.98651 57.7799 21.4959 44.4274 40.5857C39.3122 47.8986 27.1591 66.9725 22.5041 74.9943C12.7918 91.7297 4.29236 110.503 1.41147 121.583C-1.20004 131.629 -0.10729 147.263 4.0242 158.959C11.284 179.513 27.6698 196.192 47.8214 203.541C57.5075 207.073 62.3856 207.923 73.3874 207.993C83.8914 208.06 86.5858 207.692 95.9372 204.914C117.368 198.547 135.785 181.431 143.661 160.559C147.875 149.394 149.395 135.762 147.501 126.134C145.492 115.927 141.811 106.301 133.997 90.8284C126.546 76.0741 112.856 53.6098 100.778 36.3227C90.1285 21.08 78.0479 4.35619 75.8204 1.77281L74.2912 0L73.0272 1.4135ZM666.767 37.5626C666.558 38.1077 666.387 39.4907 666.387 40.6356V42.7172H670.382H674.376L674.191 39.8245L674.005 36.9317L670.577 36.7514C667.86 36.6083 667.069 36.777 666.767 37.5626ZM267.858 37.8616C264.931 38.4743 261.235 40.7507 260.041 42.6776C258.69 44.8566 258.159 48.6184 258.788 51.5648C259.545 55.1068 262.279 57.2206 268.993 59.455C271.614 60.3271 274.2 61.5299 274.742 62.1273C276.244 63.7868 275.984 66.2716 274.184 67.4494C272.126 68.7977 265.957 68.3233 262.477 66.5493C261.076 65.8349 259.644 65.2503 259.295 65.2503C258.934 65.2503 258.662 66.6827 258.662 68.5858C258.662 72.6631 259.503 73.3719 265.591 74.4225C270.226 75.2221 275.541 74.8274 278.126 73.4913C284.435 70.2313 286.355 61.265 281.664 56.9691C280.53 55.9307 278.387 54.6555 276.903 54.1342C275.417 53.6129 272.889 52.7225 271.282 52.1549C267.667 50.8778 266.106 48.8188 267.1 46.6386C268.544 43.4705 273.302 43.1027 278.535 45.7543C280.51 46.7549 282.194 47.5771 282.278 47.5813C282.361 47.5856 282.43 45.8377 282.43 43.6971V39.8044L279.944 38.8105C276.812 37.5584 271.355 37.1296 267.858 37.8616ZM174.462 40.5754C174.343 42.0765 174.338 43.5838 174.452 43.9249C174.568 44.275 176.753 44.5442 179.483 44.5442C182.137 44.5442 184.333 44.7501 184.363 45.001C184.393 45.2519 184.462 51.3894 184.515 58.6396C184.605 70.7703 184.707 71.9262 185.799 73.132C186.745 74.1752 187.552 74.4054 189.761 74.2617L192.536 74.0808L192.84 59.4648L193.145 44.8487L198.173 44.6721L203.201 44.4949V41.1703V37.8452H188.941H174.679L174.462 40.5754ZM207.611 55.896L207.772 74.0808L211.548 74.2611L215.324 74.442L215.658 72.4341C215.842 71.33 215.939 69.6046 215.874 68.5998C215.81 67.5949 215.811 65.6084 215.878 64.1845L216 61.5963L218.895 61.6066L221.79 61.6176L224.837 67.1632C227.205 71.4737 228.321 72.8957 229.845 73.5467C232.286 74.5905 238.55 74.6807 238.55 73.6728C238.55 73.2806 236.711 70.0791 234.465 66.5578C231.419 61.7832 230.606 60.0829 231.265 59.8685C233.219 59.234 236.627 55.0739 237.329 52.4649C238.763 47.1459 236.84 42.2191 232.333 39.6619C229.872 38.2648 229.037 38.1607 218.581 37.9433L207.449 37.7112L207.611 55.896ZM245.076 38.2252C244.839 38.4627 244.644 46.7086 244.644 56.5489V74.4407L248.758 74.2611L252.872 74.0808V56.1153V38.1497L249.19 37.9719C247.165 37.8738 245.314 37.9877 245.076 38.2252ZM289.887 55.963L290.048 74.0808L291.877 74.2465C292.9 74.339 294.568 73.8798 295.663 73.2032L297.622 71.9944L297.796 66.0341L297.971 60.0738L304.808 59.902L311.645 59.7297L311.817 66.9056L311.989 74.0808L316.103 74.2611L320.216 74.4407V56.1153V37.7898L316.103 37.9694L311.989 38.1497L311.818 45.61L311.646 53.0702H304.656H297.667V46.088C297.667 38.1101 297.501 37.8452 292.517 37.8452H289.725L289.887 55.963ZM326.92 56.1153V74.4407L331.034 74.2611L335.148 74.0808L335.322 68.2186C335.465 63.3697 335.695 62.1742 336.655 61.3076C337.292 60.7309 338.061 60.4118 338.364 60.5987C338.666 60.7851 340.946 63.9616 343.43 67.6577L347.947 74.3768L352.975 74.381C355.74 74.3835 357.997 74.1795 357.989 73.9286C357.983 73.6777 354.84 69.087 351.005 63.7278C347.171 58.3686 344.023 53.812 344.01 53.6025C343.996 53.393 346.722 50.1044 350.066 46.2945C353.41 42.4846 356.152 39.0139 356.16 38.5809C356.171 37.9895 355.01 37.8379 351.493 37.9719L346.812 38.1497L341.285 45.7531L335.758 53.3571L335.453 45.7531L335.148 38.1497L331.034 37.9694L326.92 37.7898V56.1153ZM373.485 38.3111C373.118 38.5571 371.641 41.9103 370.203 45.7622C368.765 49.6142 365.843 57.3375 363.71 62.9251C361.576 68.5127 359.831 73.3774 359.831 73.7349C359.831 74.1064 361.097 74.3853 362.784 74.3853C366.26 74.3853 367.3 73.4974 368.728 69.3105L369.697 66.4683H376.832H383.968L385.093 69.6655C385.712 71.4237 386.485 73.2057 386.812 73.6241C387.62 74.6606 391.627 74.5869 393.082 73.5083C394.234 72.6545 394.173 72.3573 390.711 62.0896C384.88 44.7957 382.594 39.3555 380.819 38.5474C379.101 37.7654 374.52 37.618 373.485 38.3111ZM397.149 38.9256C397.304 39.5193 400.215 44.1642 403.618 49.2475L409.806 58.4891V66.4665V74.4432L413.607 74.2623L417.408 74.0808L417.838 71.6448C418.075 70.305 418.283 66.7423 418.301 63.7278L418.334 58.2468L424.126 48.7238C427.312 43.4864 429.918 38.8963 429.918 38.523C429.918 37.6223 425.528 37.6503 423.522 38.5638C422.441 39.0559 420.882 41.2599 418.57 45.5673C416.715 49.024 415.012 51.8474 414.787 51.8407C414.562 51.8346 412.765 49.1282 410.794 45.8262C406.747 39.0455 405.118 37.8452 399.963 37.8452C397.297 37.8452 396.905 37.9956 397.149 38.9256ZM434.794 55.0946C434.794 71.0571 434.879 72.4463 435.909 73.3774C436.859 74.2373 438.648 74.3853 448.098 74.3853H459.172V71.0358V67.6863H451.249H443.326V63.7479V59.8095L450.183 59.6371L457.039 59.4648L457.223 56.2675L457.408 53.0702H450.367H443.326V48.8072V44.5442H451.281H459.236L459.051 41.347L458.867 38.1497L446.831 37.9847L434.794 37.8196V55.0946ZM480.555 38.911C479.273 39.9597 479.255 40.2508 479.421 57.0288L479.589 74.0808H491.473H503.358L503.542 70.8836L503.726 67.6863H495.836C489.931 67.6863 487.871 67.4878 487.643 66.8958C487.476 66.461 487.378 64.7485 487.426 63.0895L487.512 60.0738L494.52 59.7693L501.529 59.4648L501.729 57.7163C501.839 56.7547 501.765 55.3162 501.565 54.5191C501.21 53.1031 501.048 53.0702 494.509 53.0702C489.583 53.0702 487.805 52.8693 487.776 52.309C487.752 51.8906 487.607 50.5886 487.451 49.4162C487.295 48.2439 487.319 46.6678 487.504 45.9145C487.83 44.5814 488.052 44.5442 495.751 44.5442H503.662V42.1515C503.662 38.0547 503.084 37.8452 491.802 37.8452C483.233 37.8452 481.677 37.9926 480.555 38.911ZM543.58 39.8245C543.433 40.2435 543.236 41.956 543.143 43.6307C542.977 46.5905 542.916 46.6812 540.96 46.8688C538.966 47.06 538.949 47.0892 539.131 49.9138C539.307 52.6415 539.401 52.7743 541.296 52.9564L543.277 53.1476V61.24C543.277 68.6595 543.393 69.5054 544.669 71.4024C546.728 74.4627 551.887 75.8609 555.731 74.4005C557.119 73.8731 557.294 73.4682 557.294 70.7849V67.763L555.07 68.1236C551.715 68.6674 551.2 67.5407 551.2 59.653V53.0702H554.247H557.294V50.066C557.294 47.6014 557.077 46.993 556.081 46.6776C555.413 46.4656 554.588 46.465 554.247 46.6757C553.906 46.8864 553.08 46.8858 552.413 46.6739C551.381 46.3469 551.2 45.7488 551.2 42.6764V39.0632H547.524C545.132 39.0632 543.755 39.3293 543.58 39.8245ZM227.302 46.0393C228.403 47.1392 228.798 48.1921 228.798 50.0252C228.798 51.8583 228.403 52.9113 227.302 54.0112C225.964 55.3485 225.294 55.5063 220.95 55.5063H216.092L215.878 50.482C215.76 47.7189 215.755 45.2519 215.867 45.001C215.98 44.7501 218.262 44.5442 220.939 44.5442C225.295 44.5442 225.964 44.7013 227.302 46.0393ZM379.33 52.7542C381.957 60.5196 382.001 60.3783 376.932 60.3783C374.605 60.3783 372.55 60.1341 372.366 59.8356C371.865 59.0257 376.415 46.2561 376.997 46.8377C377.272 47.113 378.322 49.7756 379.33 52.7542ZM516.529 47.0241C514.723 47.3426 512.529 47.9461 511.653 48.3651L510.062 49.127L509.897 61.7564L509.732 74.3853H513.336C516.06 74.3853 517.03 74.1502 517.31 73.4219C517.513 72.892 517.68 68.1254 517.68 62.8295C517.68 52.0605 517.504 52.4612 522.233 52.4612C523.909 52.4612 525.378 52.8821 526.297 53.625C527.673 54.7377 527.749 55.2109 528.04 64.4348L528.345 74.0808L531.85 74.2635L535.354 74.4462L535.353 63.9105C535.352 52.3443 534.894 50.4247 531.559 47.9808C529.608 46.5521 521.964 46.0655 516.529 47.0241ZM569.431 46.9169C566.613 47.8353 564.59 49.5344 562.907 52.3955C561.436 54.8954 561.256 55.8114 561.256 60.7826C561.256 65.9945 561.377 66.5377 563.088 69.0042C564.279 70.7209 566.092 72.2495 568.268 73.3725C571.354 74.9651 571.989 75.0735 576.375 74.7592C582.587 74.3141 584.356 73.4675 584.61 70.8214C584.947 67.3185 584.563 66.9969 581.351 68.0907C577.025 69.5638 572.739 68.9451 570.586 66.5371C567.427 63.0037 567.807 62.8143 578.06 62.8143H587.245L586.846 59.3125C586.312 54.6232 584.061 50.0764 581.379 48.2689C579.03 46.6855 572.432 45.9388 569.431 46.9169ZM596.74 47.5612C591.087 49.3663 591.376 48.5545 591.563 62.1383L591.728 74.0808L595.023 74.2684C597.246 74.3944 598.481 74.1965 598.822 73.6594C599.1 73.2209 599.332 68.4207 599.337 62.9909L599.347 53.1196L604.375 52.9424L609.403 52.7657L609.59 50.1757C609.757 47.8621 609.607 47.521 608.179 46.9784C605.74 46.0515 600.655 46.3109 596.74 47.5612ZM619.175 47.2652C617.375 47.7476 615.584 48.7323 614.756 49.6939C613.38 51.292 613.364 51.5088 613.364 67.7204V84.1293H617.021H620.677V78.8816C620.677 73.7325 620.703 73.6411 622.049 74.0181C625.924 75.1027 628.703 75.1216 631.495 74.082C637.316 71.9152 639.789 68.0298 639.83 60.9873C639.875 53.1123 637.494 48.8955 632.1 47.2945C628.34 46.1788 623.269 46.1672 619.175 47.2652ZM649.762 47.5612C644.11 49.3663 644.398 48.5545 644.586 62.1383L644.751 74.0808L647.778 74.272C652.212 74.5516 652.369 74.1557 652.369 62.698V53.0702H657.549H662.73V50.3511C662.73 48.2859 662.446 47.4802 661.551 47.0015C659.729 46.0271 653.664 46.3152 649.762 47.5612ZM666.878 47.0533C666.398 47.3499 666.299 51.0618 666.543 59.7863C666.93 73.7081 667.007 73.934 671.381 74.026L674.005 74.0808L674.169 60.5604L674.333 47.0399L672.34 46.6995C670.046 46.3079 667.855 46.4492 666.878 47.0533ZM685.561 46.9827C684.543 47.2987 682.916 48.3864 681.943 49.3998C680.501 50.904 680.13 51.901 679.918 54.8309C679.671 58.2267 679.768 58.536 681.707 60.5847C683.193 62.1559 684.827 63.0561 687.662 63.8648C689.81 64.4781 691.865 65.4519 692.229 66.0286C694.172 69.1059 688.221 70.601 683.079 68.3282C681.522 67.64 680.147 67.0773 680.022 67.0773C679.897 67.0773 679.795 68.4262 679.795 70.0748C679.795 72.9919 679.856 73.0942 682.08 73.8677C685.751 75.1435 692.44 74.8457 695.479 73.2715C699.266 71.3086 700.965 68.1382 700.256 64.3581C699.666 61.2193 697.507 59.4045 692.633 57.9544C688.058 56.5927 687.337 55.8851 687.968 53.3735C688.315 51.9899 688.638 51.8541 691.538 51.8736C693.292 51.8857 695.412 52.2871 696.25 52.7657C698.778 54.2103 699.297 53.9161 699.297 51.0368C699.297 48.7506 699.071 48.2871 697.621 47.6063C695.506 46.6124 688.007 46.2245 685.561 46.9827ZM711.885 47.2598C708.841 48.3444 706.706 50.348 705.37 53.3747C701.845 61.3588 704.247 69.7338 711.088 73.3068C714.029 74.8433 721.194 75.1131 725.047 73.8323C727.267 73.0948 727.332 72.9889 727.332 70.1345V67.1967L724.492 68.0505C718.751 69.777 714.201 68.7301 712.411 65.2704C711.902 64.2875 711.486 63.3331 711.486 63.1492C711.486 62.9647 715.639 62.8143 720.714 62.8143H729.943L729.555 59.1036C729.118 54.9173 727.516 50.876 725.632 49.2061C722.641 46.5533 716.363 45.6642 711.885 47.2598ZM739.216 47.2506C734.968 48.8194 732.798 52.8796 733.684 57.6012C734.171 60.1937 736.85 62.5536 740.31 63.4355C744.986 64.6279 746.225 65.3173 746.225 66.7247C746.225 70.2301 741.778 70.4859 734.493 67.3988C733.565 67.006 733.427 67.316 733.427 69.7837C733.427 72.4761 733.543 72.6716 735.712 73.6308C739.149 75.1496 745.848 74.962 749.144 73.2544C752.792 71.3647 754.286 68.7965 753.955 64.9817C753.624 61.1468 751.987 59.6572 746.224 57.9423C742.71 56.896 741.904 56.4143 741.591 55.1695C741.377 54.3169 741.54 53.2706 741.966 52.7578C742.949 51.5739 747.437 51.5782 750.28 52.7657C751.484 53.2682 752.572 53.6793 752.699 53.6793C752.825 53.6793 752.929 52.4899 752.929 51.0368C752.929 48.7494 752.704 48.2884 751.253 47.6112C748.667 46.4035 742.047 46.205 739.216 47.2506ZM577.971 54.066C578.666 54.9484 579.235 56.1816 579.235 56.8065C579.235 57.8259 578.703 57.9423 574.054 57.9423C569.405 57.9423 568.874 57.8259 568.874 56.8065C568.874 56.1816 569.442 54.9484 570.137 54.066C571.156 52.7712 571.913 52.4612 574.054 52.4612C576.196 52.4612 576.952 52.7712 577.971 54.066ZM719.686 52.8394C720.889 53.3005 722.647 56.5324 722.141 57.3509C721.635 58.1688 711.486 58.1231 711.486 57.3028C711.486 56.2224 713.244 53.1981 714.064 52.8687C715.188 52.4168 718.539 52.3991 719.686 52.8394ZM630.413 54.273C632.023 55.8814 632.453 57.8716 632.136 62.2509C631.945 64.8898 631.52 66.2576 630.609 67.168C629.11 68.6656 624.766 69.2947 622.353 68.3635L620.677 67.7167V61.1243C620.677 56.8089 620.93 54.2797 621.409 53.801C621.811 53.3991 623.731 53.0702 625.675 53.0702C628.382 53.0702 629.491 53.3516 630.413 54.273ZM47.6057 62.6206C47.1279 63.5646 46.1229 66.2551 45.372 68.5998C44.6218 70.9445 43.1 75.4663 41.9908 78.6483C32.902 104.725 27.6783 127.681 27.6783 141.547C27.6783 153.274 31.0535 162.385 39.1373 172.482C44.968 179.764 52.7239 186.191 64.2249 193.273C70.7101 197.267 68.6361 197.711 58.17 194.569C37.5375 188.376 23.0885 173.886 16.9678 153.251C15.0029 146.627 14.3179 136.136 15.4655 130.25C16.3961 125.476 19.7951 114.857 22.863 107.139C26.8111 97.2058 39.8053 71.9706 43.7954 66.4878C44.9003 64.9701 46.2953 62.7686 46.8957 61.5963C47.496 60.4239 48.0963 59.7888 48.2304 60.1846C48.3644 60.5805 48.0829 61.6767 47.6057 62.6206ZM256.63 84.5355C256.407 84.7584 256.224 87.3461 256.224 90.2851C256.224 93.2242 256.001 95.7655 255.73 95.9336C255.458 96.1011 254.092 95.9482 252.695 95.5938C246.914 94.1273 240.823 96.8483 238.225 102.059C237.037 104.441 236.721 106.013 236.721 109.542C236.721 116.916 239.336 121.169 244.882 122.816C252.151 124.972 260.406 122.943 262.838 118.4C263.315 117.511 263.537 111.843 263.537 100.613V84.1293H260.287C258.499 84.1293 256.853 84.312 256.63 84.5355ZM408.411 84.5087C408.173 84.7469 407.978 87.5312 407.978 90.6962C407.978 96.3812 407.961 96.4464 406.607 96.0371C398.761 93.6663 391.64 96.8483 389.345 103.751C388.117 107.447 388.428 114.589 389.946 117.522C391.974 121.44 396.688 123.714 402.78 123.714C407.53 123.714 411.567 122.355 413.832 119.994L415.596 118.155V101.295V84.4338L412.22 84.2548C410.363 84.1567 408.649 84.2706 408.411 84.5087ZM319.607 104.226V123.105H323.264H326.92V104.226V85.3473H323.264H319.607V104.226ZM333.015 104.226V123.163L336.804 122.982L340.592 122.801L340.613 104.226L340.633 85.6518L336.824 85.4704L333.015 85.2895V104.226ZM346.918 86.6031C346.8 86.9588 346.806 88.329 346.931 89.6481L347.16 92.0464H351.058H354.955V89.0014V85.9563H351.045C348.828 85.9563 347.04 86.2365 346.918 86.6031ZM548.152 89.0294V92.1018L552.266 91.9221C556.059 91.7559 556.396 91.6304 556.583 90.3095C556.695 89.522 556.621 88.22 556.419 87.4167C556.079 86.0635 555.763 85.9563 552.102 85.9563H548.152V89.0294ZM442.573 87.1366C437.086 88.9033 433.777 93.4958 434.348 98.5523C434.887 103.334 437.429 105.752 444.545 108.254C451.514 110.703 453.381 113.058 450.576 115.861C449.454 116.983 448.751 117.11 444.939 116.888C441.253 116.671 438.963 116.014 435.251 114.104C434.999 113.975 434.794 115.55 434.794 117.605V121.341L437.079 122.319C440.084 123.606 448.36 124.051 451.837 123.113C457.138 121.683 461.073 115.663 460.099 110.475C459.416 106.835 456.486 104.389 450.339 102.329C447.324 101.319 444.376 100.057 443.787 99.5243C442.395 98.2655 442.418 95.5506 443.831 94.2723C445.617 92.6578 451.24 92.9306 454.956 94.8125L458.013 96.3599L457.831 92.5342C457.661 88.9593 457.528 88.65 455.82 87.829C453.694 86.8065 445.007 86.3528 442.573 87.1366ZM294.138 87.9356C293.331 88.9106 281.211 121.062 281.211 122.229C281.211 122.891 282.077 123.105 284.75 123.105H288.29L289.507 119.299L290.725 115.493L297.749 115.322L304.773 115.151L306.271 118.976L307.769 122.801L311.839 122.981L315.908 123.16L315.079 120.545C314.623 119.106 311.821 111.01 308.853 102.554L303.456 87.1792L299.112 87.1768C296.377 87.175 294.535 87.4563 294.138 87.9356ZM184.613 95.3569C184.278 95.4909 182.984 95.771 181.737 95.9787C178.712 96.4842 177.604 97.7271 177.604 100.616C177.604 103.318 177.691 103.353 181.261 102.095C186.72 100.17 191.786 101.423 192.547 104.885C193.085 107.335 192.216 108.244 190.316 107.215C189.526 106.788 187.048 106.419 184.81 106.397C180.06 106.351 177.986 107.491 176.168 111.147C173.72 116.07 176.391 121.625 181.926 123.126C185.147 124 194.392 123.608 196.534 122.508C199.825 120.818 200.126 119.823 200.141 110.559C200.153 102.641 200.046 101.809 198.775 99.9013C198.016 98.763 196.348 97.3191 195.067 96.6918C192.94 95.6504 186.072 94.7735 184.613 95.3569ZM216.304 95.4598C215.634 95.6267 213.621 96.0475 211.832 96.3953C206.262 97.4768 206.248 97.5128 206.248 111.23V123.105H210.21H214.171V112.519C214.171 102.055 214.187 101.928 215.543 101.565C218.227 100.846 221.351 101.182 222.788 102.344C224.176 103.466 224.234 103.855 224.422 113.306L224.616 123.105H228.231H231.846L231.844 112.6C231.844 100.812 231.328 98.8051 227.773 96.7552C225.838 95.6389 218.786 94.8423 216.304 95.4598ZM367.644 96.0536C358.891 98.7448 356.246 112.637 363.125 119.784C366.251 123.032 369.402 123.97 375.752 123.543C382.086 123.118 382.99 122.557 382.99 119.054C382.99 116.317 382.959 116.272 381.314 116.676C377.555 117.599 372.583 117.753 370.771 117.003C368.867 116.215 366.807 113.181 367.46 112.126C367.669 111.788 371.595 111.534 376.627 111.534H385.428V109.514C385.428 106.061 383.63 101.219 381.454 98.8124C378.202 95.215 373.455 94.2662 367.644 96.0536ZM471.869 96.0505C466.683 97.6461 463.865 102.444 463.851 109.707C463.839 116.469 466.259 120.548 471.588 122.742C474.338 123.875 480.594 124.016 484.499 123.033L487.207 122.352V119.308C487.207 116.285 487.195 116.268 485.531 116.711C484.609 116.957 482.032 117.284 479.804 117.439C476.016 117.701 475.632 117.608 473.892 115.997C472.868 115.05 471.949 113.727 471.848 113.057C471.674 111.892 472.058 111.832 480.655 111.67L489.645 111.502V109.193C489.645 102.472 485.817 96.8958 480.408 95.7369C476.607 94.9221 475.394 94.9671 471.869 96.0505ZM499.183 96.5256C496.886 97.313 494.762 98.3398 494.461 98.8081C494.161 99.2758 493.983 104.866 494.065 111.23L494.216 122.801L498.01 122.982L501.805 123.163L501.972 112.629L502.139 102.095H507.168H512.196L512.196 99.2381C512.195 97.6668 511.892 96.1943 511.522 95.9653C509.692 94.8356 503.261 95.1273 499.183 96.5256ZM570.699 95.6218C564.213 97.7576 560.947 102.356 560.955 109.341C560.962 116.128 564.08 121.007 569.575 122.831C573.049 123.984 578.933 123.81 581.825 122.469C583.322 121.775 583.501 121.372 583.501 118.679C583.501 116.039 583.369 115.725 582.434 116.134C581.848 116.391 579.388 116.724 576.968 116.874C572.746 117.135 572.495 117.074 570.773 115.353C568.502 113.083 567.725 108.874 568.968 105.571C570.472 101.574 574.773 100.425 581.825 102.135C583.471 102.534 583.501 102.491 583.501 99.7149C583.501 97.1924 583.32 96.8197 581.825 96.2485C579.573 95.3892 572.597 94.9964 570.699 95.6218ZM594.979 96.0152C589.865 97.6522 587.033 102.417 586.988 109.461C586.942 116.59 589.962 121.194 595.943 123.11C598.571 123.953 605.843 123.64 608.641 122.563C610.136 121.987 610.317 121.612 610.317 119.091C610.317 116.434 610.234 116.291 608.945 116.708C608.192 116.952 605.622 117.286 603.235 117.45C599.116 117.735 598.802 117.662 597.018 116.012C595.985 115.057 595.058 113.727 594.958 113.057C594.784 111.892 595.168 111.832 603.765 111.67L612.755 111.502L612.747 109.539C612.737 106.704 611.249 101.539 609.929 99.7545C607.112 95.9464 600.422 94.2729 594.979 96.0152ZM622.905 95.9422C618.364 97.6327 615.887 101.544 616.68 105.771C617.33 109.235 619.56 111.262 624.061 112.48C628.468 113.671 630.172 115.219 629.159 117.11C628.33 118.659 623.09 118.61 619.585 117.02C616.615 115.673 616.183 116.028 616.521 119.542C616.765 122.081 618.73 123.14 623.97 123.556C628.862 123.943 632.613 122.872 635.115 120.371C636.907 118.581 637.133 117.983 637.133 115.027C637.133 110.372 635.878 108.983 629.866 106.982C624.384 105.158 623.142 103.678 625.292 101.529C626.628 100.195 630.605 100.327 633.5 101.803L635.914 103.033V100.294C635.914 98.045 635.641 97.377 634.39 96.5579C632.299 95.1882 625.858 94.8435 622.905 95.9422ZM300.519 102.108C301.632 105.425 302.542 108.354 302.542 108.619C302.542 108.882 300.485 109.098 297.971 109.098C294.825 109.098 293.4 108.871 293.4 108.368C293.4 106.694 297.369 95.7028 297.909 95.8825C298.232 95.9903 299.407 98.7917 300.519 102.108ZM347.032 109.374V123.105H350.689H354.346L354.437 110.316C354.487 103.282 354.556 97.1851 354.59 96.7661C354.631 96.2491 353.427 95.9464 350.842 95.8234L347.032 95.6425V109.374ZM514.023 95.9373C514.023 96.1882 520.885 112.861 523.648 119.324L525.286 123.154L529.208 122.978L533.129 122.801L534.902 118.538C540.762 104.447 543.886 96.6754 543.886 96.1924C543.886 95.8898 542.2 95.7241 540.138 95.8234L536.391 96.0049L533.282 104.983C531.572 109.922 529.91 113.876 529.588 113.771C529.267 113.667 527.864 110.585 526.473 106.924C525.081 103.263 523.507 99.2405 522.975 97.9841L522.008 95.7004H518.016C515.82 95.7004 514.023 95.807 514.023 95.9373ZM548.762 109.403V123.105H552.419H556.075V109.403V95.7004H552.419H548.762V109.403ZM254.869 102.13C256.119 103.004 256.224 103.56 256.224 109.316C256.224 113.355 255.966 115.811 255.492 116.285C254.43 117.346 248.235 117.206 246.632 116.084C243.121 113.627 243.343 104.085 246.957 102.125C249.135 100.943 253.177 100.945 254.869 102.13ZM376.009 102.676C376.832 103.499 377.505 104.732 377.505 105.417C377.505 106.574 377.137 106.662 372.325 106.662C369.114 106.662 367.144 106.419 367.144 106.023C367.144 104.943 368.902 101.918 369.722 101.589C371.784 100.76 374.574 101.242 376.009 102.676ZM406.415 101.775C407.967 102.365 407.978 102.419 407.978 109.323C407.978 117.116 408.038 117.015 403.386 117.015C397.994 117.015 396.398 115.162 396.398 108.9C396.398 104.818 397.365 102.712 399.663 101.786C401.451 101.064 404.531 101.06 406.415 101.775ZM479.477 101.882C481.172 102.773 481.701 103.58 481.713 105.292C481.721 106.607 481.512 106.662 476.501 106.662C471.375 106.662 471.286 106.637 471.674 105.292C472.626 101.989 476.479 100.305 479.477 101.882ZM603.194 101.943C603.762 102.362 604.481 103.595 604.791 104.683L605.356 106.662H599.913C593.71 106.662 593.133 106.079 596.252 102.962C598.198 101.018 601.318 100.56 603.194 101.943ZM191.883 111.882C193.014 113.012 193.153 116.46 192.109 117.503C191.316 118.296 185.642 118.495 184.552 117.768C182.294 116.261 182.272 112.729 184.514 111.645C186.562 110.655 190.791 110.791 191.883 111.882ZM180.347 152.919C176.92 154.335 175.166 158.019 175.168 163.796C175.168 168.402 176.346 171.345 178.95 173.252C182.042 175.517 191.058 175.213 191.517 172.829C191.687 171.948 191.441 171.855 189.995 172.259C189.046 172.523 186.697 172.722 184.774 172.701C181.982 172.671 180.973 172.377 179.764 171.242C177.676 169.282 176.81 166.26 177.118 162.009C177.441 157.541 178.929 155.374 182.454 154.236C184.703 153.51 185.512 153.52 188.341 154.308C191.021 155.052 191.622 155.071 191.622 154.409C191.622 153.963 191.091 153.315 190.443 152.968C189.056 152.226 182.104 152.192 180.347 152.919ZM197.107 163.604C197.107 172.828 197.261 174.871 197.956 174.871C199.181 174.871 199.544 173.483 199.544 168.802C199.544 163.938 199.428 164.015 206.644 164.134L211.429 164.213L211.605 169.542C211.737 173.526 211.989 174.871 212.605 174.871C213.736 174.871 213.926 172.491 213.658 161.625C213.475 154.208 213.258 152.338 212.581 152.338C211.928 152.338 211.734 153.454 211.734 157.21V162.082H205.639H199.544L199.456 160.102C199.407 159.013 199.305 157.301 199.229 156.296C199.153 155.291 199.056 153.989 199.013 153.403C198.97 152.817 198.524 152.338 198.021 152.338C197.241 152.338 197.107 153.995 197.107 163.604ZM220.266 163.584V174.871H226.97C233.267 174.871 233.674 174.797 233.674 173.653C233.674 172.52 233.267 172.435 227.884 172.435H222.094V168.52V164.605L225.437 164.188C227.275 163.959 229.194 163.93 229.703 164.125C230.965 164.609 232.455 163.962 232.455 162.93C232.455 162.272 231.296 162.082 227.275 162.082H222.094V158.145V154.208L228.036 154.034C236.334 153.791 235.688 152.685 227.122 152.47L220.266 152.297V163.584ZM239.768 163.264C239.768 173.371 240.138 175.922 241.418 174.643C241.61 174.451 241.73 170.656 241.683 166.209C241.638 161.761 241.838 157.753 242.128 157.302C242.512 156.706 243.62 157.912 246.17 161.703C248.103 164.574 249.893 166.795 250.149 166.637C250.405 166.479 252.189 164.164 254.114 161.492C256.039 158.82 257.85 156.78 258.138 156.958C258.426 157.136 258.662 161.239 258.662 166.076C258.662 173.488 258.805 174.871 259.576 174.871C260.355 174.871 260.49 173.213 260.49 163.604C260.49 152.805 260.44 152.338 259.291 152.338C258.448 152.338 256.964 154.059 254.301 158.123C252.216 161.305 250.319 163.909 250.086 163.909C249.852 163.909 247.994 161.305 245.957 158.123C243.265 153.919 241.913 152.338 241.011 152.338C239.807 152.338 239.768 152.676 239.768 163.264ZM267.194 163.655C267.194 172.438 267.365 174.916 267.956 174.719C268.519 174.531 268.761 171.591 268.884 163.402C269.027 153.827 268.925 152.338 268.122 152.338C267.324 152.338 267.194 153.926 267.194 163.655ZM278.014 153.873C276.211 155.097 275.55 156.106 274.752 158.847C273.044 164.718 274.432 170.358 278.291 173.232C281.35 175.511 290.963 175.112 290.963 172.707C290.963 172.062 290.482 171.963 288.982 172.298C287.892 172.541 285.566 172.717 283.811 172.69C278.681 172.612 276.334 169.625 276.338 163.178C276.341 159.123 277.644 156.01 279.807 154.892C282.034 153.743 285.272 153.552 288.104 154.404C290.576 155.147 290.963 155.146 290.963 154.394C290.963 153.118 288.343 152.338 284.056 152.338C281.019 152.338 279.83 152.64 278.014 153.873ZM302.592 153.708C302.302 154.462 300.388 159.261 298.341 164.374C296.294 169.486 294.619 173.939 294.619 174.27C294.619 174.6 295.016 174.871 295.501 174.871C296.024 174.871 296.927 173.377 297.724 171.194L299.065 167.518L304.273 167.692L309.479 167.867L310.823 171.217C311.599 173.151 312.605 174.654 313.203 174.774C314.435 175.022 314.238 174.162 311.697 168.172C310.774 165.994 308.975 161.541 307.701 158.275C305.927 153.729 305.119 152.338 304.252 152.338C303.631 152.338 302.884 152.954 302.592 153.708ZM318.388 163.604V174.871H325.092C331.39 174.871 331.796 174.797 331.796 173.653C331.796 172.52 331.39 172.435 326.006 172.435H320.216V162.386C320.216 153.86 320.078 152.338 319.302 152.338C318.523 152.338 318.388 153.995 318.388 163.604ZM337.844 154.118C334.325 157.633 336.065 161.593 342.157 163.935C346.255 165.51 347.642 166.692 347.642 168.611C347.642 172.996 342.998 174.215 336.519 171.528C335.755 171.211 335.453 171.372 335.453 172.096C335.453 173.498 339.056 174.871 342.737 174.871C346.546 174.871 349.323 172.715 349.859 169.344C350.331 166.374 348.445 164.286 343.385 162.176C338.525 160.15 337.097 158.207 338.684 155.786C340.026 153.739 343.075 153.159 346.02 154.389C347.909 155.178 348.251 155.188 348.251 154.459C348.251 153.129 346.202 152.338 342.76 152.338C340.108 152.338 339.351 152.612 337.844 154.118ZM367.798 153.942C366.283 155.866 366.213 157.255 367.501 159.745C368.444 161.569 368.424 161.657 366.598 163.538C364.229 165.982 363.662 168.609 364.963 171.122C366.857 174.784 371.784 175.938 375.599 173.614L377.654 172.362L378.99 173.616C380.321 174.866 381.774 175.283 381.768 174.414C381.766 174.162 381.118 173.148 380.327 172.161C378.998 170.501 378.951 170.212 379.721 168.374C380.772 165.857 380.769 165.127 379.704 165.127C379.238 165.127 378.684 165.812 378.474 166.649C378.263 167.486 377.844 168.172 377.541 168.172C376.876 168.172 372.63 163.303 372.63 162.541C372.63 162.245 373.452 161.311 374.458 160.466C378.123 157.384 376.259 152.338 371.455 152.338C369.595 152.338 368.78 152.695 367.798 153.942ZM398.504 153.833C397.431 154.904 397.008 155.993 397.008 157.685C397.008 160.599 398.378 161.991 403.407 164.183C407.393 165.921 408.587 167.067 408.587 169.158C408.587 172.405 403.501 173.99 399.047 172.13C396.367 171.011 396.398 171.011 396.398 172.114C396.398 173.784 399.945 175.025 403.901 174.739C408.39 174.414 410.416 172.572 410.416 168.814C410.416 165.739 409.06 164.229 404.739 162.491C400.363 160.733 398.836 159.471 398.836 157.615C398.836 155.352 400.978 153.851 404.109 153.919C405.598 153.951 407.133 154.294 407.519 154.68C408.481 155.642 409.197 155.561 409.197 154.49C409.197 153.1 407.151 152.338 403.419 152.338C400.601 152.338 399.736 152.601 398.504 153.833ZM416.039 163.452L416.206 174.566L423.062 174.738C429.605 174.903 429.918 174.854 429.918 173.673C429.918 172.515 429.543 172.435 424.128 172.435H418.339V168.476V164.518L420.624 164.404C421.881 164.342 423.732 164.249 424.738 164.198C428.303 164.019 428.699 163.899 428.699 162.995C428.699 162.255 427.718 162.082 423.519 162.082H418.339V158.123V154.165H424.128C428.869 154.165 429.918 153.999 429.918 153.251C429.918 152.492 428.732 152.338 422.896 152.338H415.873L416.039 163.452ZM436.013 163.549C436.013 173.061 436.155 174.871 436.901 174.871C437.588 174.871 437.83 173.798 437.968 170.151L438.146 165.431L441.015 165.247L443.883 165.062L446.804 169.51C449.682 173.891 450.5 174.843 451.402 174.861C452.305 174.88 451.818 173.659 449.362 169.744L446.865 165.765L449.057 163.699C451.008 161.861 451.249 161.297 451.249 158.576C451.249 156.473 450.885 155.068 450.085 154.08C449.017 152.761 448.387 152.625 442.467 152.434L436.013 152.227V163.549ZM455.515 152.532C455.515 153 463.96 174.377 464.265 174.682C465.029 175.445 466.241 174.236 467.217 171.737C473.229 156.345 474.408 153.235 474.408 152.778C474.408 152.487 473.97 152.337 473.433 152.445C472.795 152.574 471.311 155.694 469.146 161.463C467.325 166.314 465.607 170.511 465.329 170.789C465.05 171.067 463.208 167.03 461.236 161.817C458.491 154.565 457.398 152.339 456.582 152.339C455.996 152.338 455.515 152.425 455.515 152.532ZM478.675 163.264C478.675 173.329 479.046 175.921 480.306 174.661C481.719 173.249 480.991 152.338 479.528 152.338C478.828 152.338 478.675 154.299 478.675 163.264ZM490.192 153.724C485.915 156.587 484.737 165.815 488.021 170.729C490.485 174.415 496.187 175.925 501.134 174.202C503.794 173.275 503.743 171.702 501.072 172.298C497.921 173 493.614 172.807 491.894 171.888C489.603 170.662 488.426 167.695 488.426 163.146C488.426 158.073 490.019 155.456 493.849 154.236C496.129 153.51 496.942 153.52 499.773 154.308C502.543 155.078 503.053 155.088 503.053 154.373C503.053 153.112 500.405 152.338 496.095 152.338C493.121 152.338 491.799 152.648 490.192 153.724ZM508.538 163.604V174.871H515.591C521.98 174.871 522.625 174.77 522.441 173.805C522.266 172.891 521.386 172.714 516.274 172.564L510.311 172.39L510.491 168.301L510.671 164.213L514.937 164.127C520.79 164.01 520.727 164.022 520.727 162.995C520.727 162.255 519.745 162.082 515.547 162.082H510.366V158.123V154.165H516.461C521.472 154.165 522.555 154.002 522.555 153.251C522.555 152.492 521.371 152.338 515.547 152.338H508.538V163.604ZM529.618 154.211C526.467 157.954 528.182 161.646 534.135 163.935C538.487 165.607 539.62 166.683 539.62 169.145C539.62 172.779 535.565 174.053 530.174 172.112C527.185 171.036 527.431 171.032 527.431 172.161C527.431 173.5 531.117 174.871 534.715 174.871C538.524 174.871 541.301 172.715 541.837 169.344C542.308 166.376 540.26 164.077 535.592 162.337C533.508 161.56 531.502 160.323 530.799 159.381C529.696 157.906 529.669 157.621 530.491 156.165C531.787 153.867 534.206 153.234 537.519 154.324C539.73 155.051 540.23 155.066 540.23 154.407C540.23 153.106 538.116 152.338 534.534 152.338C531.555 152.338 531.026 152.539 529.618 154.211ZM373.103 154.504C374.963 155.805 374.827 158.049 372.792 159.649L371.125 160.959L369.744 159.354C368.045 157.38 368.008 156.347 369.582 154.774C371.05 153.307 371.36 153.283 373.103 154.504ZM448.066 155.113C449.873 156.377 449.95 160.334 448.202 162.082C447.2 163.083 446.171 163.3 442.412 163.3H437.841V159.138C437.841 156.849 438.024 154.794 438.248 154.571C439.087 153.731 446.692 154.151 448.066 155.113ZM306.45 160.207C308.664 165.698 308.65 165.736 304.407 165.736C302.415 165.736 300.663 165.53 300.514 165.279C300.085 164.558 303.912 155.287 304.419 155.819C304.669 156.082 305.583 158.056 306.45 160.207ZM373.374 166.909C376.064 170.219 376.183 170.511 375.203 171.395C373.806 172.652 371.165 173.267 369.237 172.784C367.138 172.257 365.59 168.738 366.6 166.787C367.605 164.843 369.055 163.294 369.829 163.334C370.196 163.353 371.792 164.962 373.374 166.909Z" fill="white"/>
</svg>
